<svg width="96" height="85" viewBox="0 0 96 85" fill="none" xmlns="http://www.w3.org/2000/svg">
<path d="M25.0425 54.5411V44.2773H17.8331V54.5411H25.0425Z" fill="#0076FF"/>
<path d="M95.0229 42.3967C95.0229 35.6097 89.5156 30.0959 82.7465 30.0763C82.7465 30.0763 82.7465 30.0763 82.7367 30.0763H82.7269H76.8871H66.3518C65.2171 30.0763 64.2976 29.1557 64.2976 28.0196V13.5054V12.3204C64.2976 5.52362 58.7805 0 51.9918 0C45.2031 0 39.686 5.52362 39.686 12.3204V18.1672V28.0196C39.686 29.1557 38.7665 30.0763 37.6318 30.0763H17.833V40.3401H40.7034C45.7998 40.3401 49.9278 36.2071 49.9278 31.1046V12.3204C49.9278 11.1844 50.8473 10.2638 51.982 10.2638C53.1168 10.2638 54.0363 11.1844 54.0363 12.3204V31.1046C54.0363 36.2071 58.1643 40.3401 63.2607 40.3401H82.7171C83.8519 40.3401 84.7714 41.2607 84.7714 42.3967C84.7714 43.5328 83.8519 44.4534 82.7171 44.4534H76.8773H63.2607C58.1643 44.4534 54.0363 48.5863 54.0363 53.6888V66.5969V69.0453V72.4535C54.0363 73.5895 53.1168 74.5101 51.982 74.5101C50.8473 74.5101 49.9278 73.5895 49.9278 72.4535V69.0159V53.6888C49.9278 48.5863 45.7998 44.4534 40.7034 44.4534H28.4367V54.7171H37.622C38.7567 54.7171 39.6763 55.6378 39.6763 56.7738V66.6067V69.0551V72.4632C39.6763 79.26 45.1933 84.7837 51.982 84.7837C58.7708 84.7837 64.2878 79.26 64.2878 72.4632V68.8592V56.7934C64.2878 55.6573 65.2073 54.7367 66.342 54.7367H82.7367C82.7367 54.7367 82.7465 54.7367 82.7563 54.7367C89.5254 54.7171 95.0327 49.2033 95.0327 42.4163L95.0229 42.3967Z" fill="#0076FF"/>
<path d="M14.4087 40.3402V30.0764H7.19934L7.19934 40.3402H14.4087Z" fill="#0076FF"/>
<path d="M7.20947 30.0764V24.2688H0.000123978V30.0764H7.20947Z" fill="#0076FF"/>
</svg>
